<?xml version="1.0" encoding="UTF-8" standalone="no"?>
<!-- Generator: Adobe Illustrator 26.0.2, SVG Export Plug-In . SVG Version: 6.00 Build 0)  -->

<svg
   xmlns:dc="http://purl.org/dc/elements/1.1/"
   xmlns:cc="http://creativecommons.org/ns#"
   xmlns:rdf="http://www.w3.org/1999/02/22-rdf-syntax-ns#"
   xmlns:svg="http://www.w3.org/2000/svg"
   xmlns="http://www.w3.org/2000/svg"
   xmlns:sodipodi="http://sodipodi.sourceforge.net/DTD/sodipodi-0.dtd"
   xmlns:inkscape="http://www.inkscape.org/namespaces/inkscape"
   version="1.1"
   id="Layer_1"
   x="0px"
   y="0px"
   viewBox="0 0 656.75049 1174.8269"
   xml:space="preserve"
   sodipodi:docname="halal-indonesia-kemenag__iconlogovector.com-015.svg"
   width="656.75049"
   height="1174.8269"
   inkscape:version="0.92.2 (5c3e80d, 2017-08-06)"><metadata
     id="metadata53"><rdf:RDF><cc:Work
         rdf:about=""><dc:format>image/svg+xml</dc:format><dc:type
           rdf:resource="http://purl.org/dc/dcmitype/StillImage" /><dc:title></dc:title></cc:Work></rdf:RDF></metadata><defs
     id="defs51" /><sodipodi:namedview
     pagecolor="#ffffff"
     bordercolor="#666666"
     borderopacity="1"
     objecttolerance="10"
     gridtolerance="10"
     guidetolerance="10"
     inkscape:pageopacity="0"
     inkscape:pageshadow="2"
     inkscape:window-width="1600"
     inkscape:window-height="837"
     id="namedview49"
     showgrid="false"
     fit-margin-top="0"
     fit-margin-left="0"
     fit-margin-right="0"
     fit-margin-bottom="0"
     inkscape:zoom="0.184375"
     inkscape:cx="310.10118"
     inkscape:cy="584"
     inkscape:window-x="-8"
     inkscape:window-y="-8"
     inkscape:window-maximized="1"
     inkscape:current-layer="Layer_1" /><style
     type="text/css"
     id="style2">
	.st0{fill:#652672;}
</style><path
     class="st0"
     d="m 384.00118,60.926945 -25.5,32.7 -0.4,734.499995 c 0,2.3 -1.9,4.3 -4.3,4.3 l -215.5,0.7 c 0,0 -7.4,-5 -7.4,-15.3 0,-10.3 -0.7,-19.5 -0.7,-19.6 0,0 0,0 0,0 l -44.100004,-1.1 c 0,0 0,0 0,0 0,0 -10.3,68.9 41.400004,75.9 0,0 0,0 0.1,0 h 410 c 0.5,0 1.3,-0.2 1.8,-0.3 6.7,-1 14.1,-4 22.4,-13 11.2,-12.1 12.3,-22.2 12.8,-31.9 -0.2,-29.8 -2.4,-60.1 -1.5,-91.6 0.1,-3.4 2.2,-7.9 4.7,-10.1 l 1.4,-1.2 c 0.1,-0.1 0.2,-0.2 0.3,-0.2 3.3,-2.4 53.5,-39.4 72.2,-120.6 20.7,-89.7 -27.6,-172.4 -48.3,-206.9 -87.6,-146.1 -151.7,-244.8 -151.7,-244.8 v 589.7 h 44.8 v -438 c 0,0 37.9,51.7 93.1,158.6 3.2,6.1 37.9,72.4 13.8,148.3 -11.9,37.5 -55.2,82.8 -55.2,82.8 0,0 -13.8,10.3 -13.8,31 v 89.6 c 0,0 0,0 0,0 0,0.2 3.4,17.2 -13.8,17.2 h -117.2 V 92.526945 Z"
     id="path4"
     inkscape:connector-curvature="0"
     style="fill:#652672" /><path
     class="st0"
     d="M 17.701176,1173.2269 H 3.9011764 v -48.3 H 17.701176 Z m -6.9,-6.9 v -34.5 z"
     id="path6"
     inkscape:connector-curvature="0"
     style="fill:#652672" /><path
     class="st0"
     d="M 104.30118,1173.2269 H 91.001176 l -15.7,-23.3 c -0.7,-1 -1.4,-2.1 -2.1,-3 0,1.4 0,2.9 0,4.4 v 21.9 h -13.8 v -48.3 h 13 l 15.8,21.6 c 0.6,0.9 1.3,1.8 1.9,2.7 0.1,-1.5 0.2,-2.9 0.4,-4.5 v -19.8 h 13.800004 z"
     id="path8"
     inkscape:connector-curvature="0"
     style="fill:#652672" /><path
     class="st0"
     d="m 159.80118,1174.1269 c -4.1,0 -7.9,-0.2 -11.2,-0.5 l -3.1,-0.3 v -47 l 3,-0.4 c 4.4,-0.6 8.8,-0.9 13.2,-0.9 9.3,0 16.1,2 20.9,6 5.1,4.2 7.8,10.1 7.8,17.6 0,7.7 -2.7,14.2 -7.8,18.7 -5.1,4.4 -12.9,6.8 -22.8,6.8 z m -0.5,-11.3 c 1.1,0 2.1,0 2.6,0 10.8,0 16.2,-4.8 16.2,-14.2 0,-3.7 -1,-6.7 -3,-8.7 -2.5,-2.5 -6.7,-3.9 -12.2,-3.9 -1.4,0 -2.6,0.1 -3.5,0.1 v 26.7 z"
     id="path10"
     inkscape:connector-curvature="0"
     style="fill:#652672" /><path
     class="st0"
     d="m 252.50118,1174.8269 c -14.3,0 -24.2,-10.1 -24.2,-24.5 0,-14.9 10.2,-25.3 24.9,-25.3 14.3,0 24.2,10.1 24.2,24.5 0,15.1 -10,25.3 -24.9,25.3 z m 0.4,-38.6 c -8.4,0 -11.4,7.5 -11.4,13.9 0,6.4 3.5,13.4 11.3,13.4 7.9,0 11.4,-6.9 11.4,-13.8 0,-6.5 -3.6,-13.5 -11.3,-13.5 z"
     id="path12"
     inkscape:connector-curvature="0"
     style="fill:#652672" /><path
     class="st0"
     d="m 360.60118,1173.2269 h -11.2 l -15.7,-23.3 c -0.4,-0.6 -0.8,-1.2 -1.2,-1.8 0.1,0.8 0.3,1.6 0.5,2.5 l 0.1,0.7 v 21.9 h -13.8 v -48.3 h 11.6 l 15.8,21.6 c 0.2,0.3 0.4,0.5 0.5,0.8 -0.1,-0.5 -0.2,-1.1 -0.3,-1.6 l -0.1,-0.7 v -20 h 13.8 z"
     id="path14"
     inkscape:connector-curvature="0"
     style="fill:#652672" /><polygon
     class="st0"
     points="736,1174.2 767,1174.2 767,1184.5 746.3,1184.5 746.3,1191.4 767,1191.4 767,1201.8 746.3,1201.8 746.3,1209.4 767,1209.4 767,1222.4 736,1222.4 "
     id="polygon16"
     style="fill:#652672"
     transform="translate(-329.89882,-49.173055)" /><path
     class="st0"
     d="m 494.90118,1174.7269 c -5,0 -10.4,-1.3 -13.6,-3.1 l -2.4,-1.4 3.7,-11.1 3.6,2 c 2.6,1.4 6,2.3 9,2.3 1.5,0 6.2,-0.3 6.2,-3.6 0,-1.2 0,-2.8 -6.4,-5 -3.5,-1.1 -14.5,-4.6 -14.5,-15 0,-8.5 7.7,-14.7 18.4,-14.7 6.1,0 10,1.5 11.8,2.4 l 2.7,1.4 -4.1,10.8 -3.4,-1.7 c -1.2,-0.6 -3.8,-1.6 -7.3,-1.6 -3.6,0 -5.3,1.4 -5.3,2.8 0,1.1 0,2.4 6.9,4.8 6.6,2.3 14.1,6.1 14.1,15.5 0.2,7.5 -5.9,15.2 -19.4,15.2 z"
     id="path18"
     inkscape:connector-curvature="0"
     style="fill:#652672" /><path
     class="st0"
     d="m 567.50118,1173.2269 h -13.8 v -48.3 h 13.8 z m -6.9,-6.9 v -34.5 z"
     id="path20"
     inkscape:connector-curvature="0"
     style="fill:#652672" /><path
     class="st0"
     d="m 650.50118,1173.2269 h -13 l -5.2,-13.8 h -12.5 l -5.1,13.8 h -12.8 l 18.3,-48.3 h 11.9 z m -27.6,-21.9 h 6.4 l -3.2,-8.5 z"
     id="path22"
     inkscape:connector-curvature="0"
     style="fill:#652672" /><path
     d="m 257.70118,1077.2269 h 5.3 v 0 z"
     id="path24"
     inkscape:connector-curvature="0" /><path
     d="m 257.40118,1075.4269 h 5.3 v 0 z"
     id="path26"
     inkscape:connector-curvature="0" /><g
     id="g30"
     transform="translate(-329.89882,-49.173055)"><path
       class="st0"
       d="m 976.3,1128.4 v 2.6 c -2.6,0 -3.8,-0.9 -5,-2.1 h -81.9 v 0 h -8.6 c 0,-7 5.2,-4.3 8.6,-16.5 V 1013 c -3.4,-12.2 -8.7,-9.5 -8.6,-16.5 H 929 c 0,7.7 -6.3,3.7 -9.6,20.6 v 83.4 l 49.4,-0.5 c 10.1,-1.8 9.5,-11.3 15.1,-10.2 z"
       id="path28"
       inkscape:connector-curvature="0"
       style="fill:#652672" /></g><g
     id="g34"
     transform="translate(-329.89882,-49.173055)"><path
       class="st0"
       d="m 713.8,1128.4 v 2.6 c -2.6,0 -3.8,-0.9 -5,-2.1 h -81.9 v 0 h -8.6 c 0,-7 5.2,-4.3 8.6,-16.5 V 1013 c -3.4,-12.2 -8.7,-9.5 -8.6,-16.5 h 48.3 c 0,7.7 -6.3,3.7 -9.6,20.6 v 83.4 l 49.4,-0.5 c 10.1,-1.8 9.5,-11.3 15.1,-10.2 z"
       id="path32"
       inkscape:connector-curvature="0"
       style="fill:#652672" /></g><g
     id="g38"
     transform="translate(-329.89882,-49.173055)"><path
       class="st0"
       d="m 456.8,1127 h -48.3 c 0,-7.3 5.9,-3.9 9.2,-18.9 v -35 l -48.4,5 -0.2,30.8 c 3.3,14.1 9.1,10.9 9.1,18.1 h -48.3 c 0,-7.5 6.2,-3.7 9.4,-19.9 v -90.9 c -3.2,-16.2 -9.5,-12.5 -9.4,-19.9 h 48.3 c 0,7.1 -5.7,4 -9,17.9 l 0.1,38 48.8,-5.2 -0.3,-31.8 c -3.3,-15.1 -9.3,-11.6 -9.2,-18.9 h 48.3 c 0,7.4 -6.2,3.7 -9.4,19.7 v 91.2 c 3.2,16.1 9.4,12.4 9.3,19.8 z"
       id="path36"
       inkscape:connector-curvature="0"
       style="fill:#652672" /></g><path
     class="st0"
     d="m 536.50118,1073.9269 -53.3,-126.79996 -18.2,0.1 c 0,0 0,-0.1 0,-0.1 h -10.5 c -13.3,0 0.1,3.5 -0.3,10.6 l -43.4,113.89996 c -5.7,7.2 -8.2,2.8 -8.2,8.3 h 4.8 v 0 h 30.3 v 0 h 6.1 c 0,-3.4 -3.9,-2.1 -2.2,-8.9 l 7,-16.5 46.5,-2.7 6.5,19.8 c 2,7.4 -2.6,3.2 -2.8,8.4 h 6.3 26.2 5.3 5 c 0.5,-3.1 -2.8,-4 -5.1,-6.1 z m -78.7,-42.8 13.5,-32.39996 13.6,30.19996 z"
     id="path40"
     inkscape:connector-curvature="0"
     style="fill:#652672" /><path
     class="st0"
     d="m 272.30118,1073.9269 -53.3,-126.79996 -18.2,0.1 c 0,0 0,-0.1 0,-0.1 h -10.5 c -13.3,0 0.1,3.5 -0.3,10.6 l -43.4,113.89996 c -5.7,7.2 -8.2,2.8 -8.2,8.3 h 4.8 v 0 h 30.3 v 0 h 6.1 c 0,-3.4 -3.9,-2.1 -2.2,-8.9 l 7,-16.5 46.5,-2.7 6.5,19.8 c 2,7.4 -2.6,3.2 -2.8,8.4 h 6.3 26.2 5.3 5 c 0.4,-3.1 -2.8,-4 -5.1,-6.1 z m -78.7,-42.8 13.5,-32.39996 13.6,30.19996 z"
     id="path42"
     inkscape:connector-curvature="0"
     style="fill:#652672" /><polygon
     class="st0"
     points="585,793.8 630.7,793.8 630.7,237.3 585,304.3 "
     id="polygon44"
     style="fill:#652672"
     transform="translate(-329.89882,-49.173055)" /><path
     class="st0"
     d="m 353.70118,18.226945 c -48.2,72.1 -96.5,144.199995 -144.7,216.299995 0,169.6 0,339.3 0,508.9 -33.6,0.7 -67.1,1.3 -100.7,2 -5.5,-2.3 -12.800004,-5.8 -20.800004,-10.8 -2.5,-1.6 -14.6,-9.3 -28.1,-22.8 -12.8,-12.9 -20.4,-24.6 -22.5,-28 -6.3,-10 -9.5,-17.6 -14.9,-30.5 -8.7,-20.8 -11.6,-34.2 -12.5999996,-39 -2.6,-13 -3.1,-22.6 -3.7,-34.7 -1,-21.2 0.2,-36.9 0.4,-40.4 0.3,-3.4 1.7,-20 5.8999996,-39.4 7.5,-34.1 19.9,-60 30.5,-81.9 15.2,-31.2 29.4,-53.3 45.5,-78.1 15.100004,-23.3 28.700004,-42.1 38.400004,-55.2 0,26 0.1,52.1 0.1,78.1 -8.3,11.3 -18.1,25.7 -27.800004,43.3 -3.8,6.8 -13.9,25.4 -24.7,52.8 -14.7,37.5 -23,58.8 -25.1,89.4 -0.9,13.4 -2.5,41.6 9.4,74.5 7.2,19.8 16.3,33.3 19.4,37.6 14.1,19.9 30.200004,32.3 40.800004,39.3 15.8,0 31.7,0 47.5,0 -0.3,-158.8 -0.6,-317.5 -0.9,-476.3 79.2,-121.2 137.7,-209.599995 143.7,-216.4999951 4.4,-5.2 9.5,-6.2 9.5,-6.2 3.4,-1.3 6.8,-0.3 9.7,0.5 3.8,1.1 6.4,3 11.6,6.5 3.3,2.3 8.6,5.9000001 14.1,10.6000001 z"
     id="path46"
     inkscape:connector-curvature="0"
     style="fill:#652672" /></svg>